<?xml version="1.0" encoding="utf-8"?>
<!-- Generator: Adobe Illustrator 24.0.1, SVG Export Plug-In . SVG Version: 6.00 Build 0)  -->
<svg version="1.1" id="Layer_1" xmlns="http://www.w3.org/2000/svg" xmlns:xlink="http://www.w3.org/1999/xlink" x="0px" y="0px"
	 viewBox="0 0 894.4 547.6" style="enable-background:new 0 0 894.4 547.6;" xml:space="preserve">
<style type="text/css">
	.st0{opacity:0.81;fill:#474D51;enable-background:new    ;}
	.st1{opacity:0.47;fill:#474D51;enable-background:new    ;}
	.st2{opacity:0.47;fill:#777D7F;enable-background:new    ;}
	.st3{fill:#474D51;}
	.st4{fill:#35393D;}
	.st5{opacity:0.79;fill:#4F5760;enable-background:new    ;}
	.st6{opacity:0.58;fill:#3E479B;enable-background:new    ;}
	.st7{opacity:0.58;fill:#EF929C;enable-background:new    ;}
	.st8{opacity:0.47;}
	.st9{fill:#ECF1F7;}
	.st10{fill:#FFFFFF;}
	.st11{opacity:0.51;}
	.st12{fill:#899096;}
	.st13{fill:#D4DADD;}
	.st14{fill:#3E479B;}
	.st15{opacity:3.000000e-02;fill:#ECF1F7;enable-background:new    ;}
	.st16{fill:#CBCFD1;}
	.st17{fill:#599AF2;}
	.st18{opacity:0.81;fill:#FFFFFF;enable-background:new    ;}
	.st19{opacity:0.1;fill:#599AF2;enable-background:new    ;}
	.st20{opacity:0.89;fill:#4C65BA;enable-background:new    ;}
	.st21{clip-path:url(#SVGID_2_);}
	.st22{fill:#C96372;}
	.st23{fill:#B27B84;}
	.st24{fill:#373449;}
	.st25{opacity:0.25;fill:#33322F;enable-background:new    ;}
	.st26{clip-path:url(#SVGID_4_);}
	.st27{fill:#4C65BA;}
	.st28{fill:#F9DCD2;}
	.st29{opacity:0.64;fill:#EF929C;enable-background:new    ;}
	.st30{opacity:0.17;fill:#EF929C;enable-background:new    ;}
	.st31{fill:#EF929C;}
	.st32{opacity:0.21;fill:#599AF2;enable-background:new    ;}
	.st33{opacity:0.89;}
	.st34{opacity:0.81;fill:#ECF1F7;enable-background:new    ;}
	.st35{opacity:0.35;fill:#35393D;enable-background:new    ;}
	.st36{opacity:0.89;fill:#3E479B;enable-background:new    ;}
	.st37{fill:#8F8F9B;}
	.st38{opacity:0.27;fill:#EF929C;enable-background:new    ;}
	.st39{opacity:0.32;fill:#EF929C;enable-background:new    ;}
	.st40{opacity:0.53;fill:#3E479B;enable-background:new    ;}
	.st41{fill:#124CA0;}
	.st42{fill:none;}
	.st43{opacity:0.39;fill:#EF929C;enable-background:new    ;}
</style>
<g>
	<g id="BACKGROUND_2_">
		<g>
			<g>
				<path class="st0" d="M12.9,270.1C-1.7,258.8-4.2,237.8,7,223.2c11.3-14.6,40.3-27.2,54.8-16c14.6,11.3-2.4,34.8-5.3,53
					C52.5,285.6,27.4,281.4,12.9,270.1z"/>
				<path class="st1" d="M836.6,362.2c12.8,4,19.8,17.4,16,30.2c-4,12.8-20.2,28.7-32.8,24.7c-12.8-4-7.2-24.1-10-37.1
					C805.9,361.8,824,358.2,836.6,362.2z"/>
				<path class="st2" d="M813.7,76.6c-5.6,17.9-24.6,28-42.7,22.5c-17.9-5.6-40.5-28.6-35-46.5s34-10.2,52.5-14.1
					C814.3,33.1,819.3,58.5,813.7,76.6z"/>
				<path class="st3" d="M770.7,498.2c14-32.7,26.6-56.9,10.6-98.5c-12-31,20.5-56.6,33.1-85.5c11.2-25.7,14.9-56.6,12.1-84.7
					c-3.7-38.3-21.7-76.6-52.6-103.9C725.6,82.9,652.5,72.2,588.6,82c-26.8,4.1-53.4,11.4-80.8,9.2c-40-3.3-75.4-26.3-111.8-43.2
					c-49.7-22.9-106.6-35.2-159.4-25.1c-59.8,11.3-108.9,54.1-114.7,111c-2.7,25.8,24.3,71.1,15.8,95.4
					c-8.6,24.7-71.6,100.5-70,158.2c1.7,65.5,20.5,79.6,45.6,117.8C114.2,506.4,763.1,516,770.7,498.2z"/>
				<path class="st4" d="M728,489.3c10.5-15,17.8-32.3,21.5-50.5c6.8-33.5-4.1-62.1-6.8-95c-2.5-31.1,8.5-57.3,14.6-86.9
					c5.4-26.5,3.6-56.2-3.2-82.1c-9.3-35.4-31-68.2-61.9-88.1C643.9,55.4,579.4,59,526,80.4c-22.3,9-44,20.9-68.1,23.9
					c-35,4.4-69-10.6-103-19.7c-46.4-12.4-97.3-13.2-141,6.2c-49.6,22.1-84.8,71.8-80.7,126.5c1.9,24.9,11.4,49.3,8,73.9
					c-3.5,25-18.3,45.9-26.2,69.4c-12.6,37.6-11.8,96,16.1,127.3C132,489,727.3,490.2,728,489.3z"/>
				<ellipse class="st5" cx="434.5" cy="505.1" rx="328.2" ry="42.5"/>
			</g>
		</g>
		<circle class="st6" cx="853.3" cy="310.4" r="6"/>
		<circle class="st6" cx="402.7" cy="6" r="6"/>
		<circle class="st7" cx="810.8" cy="476.5" r="4.7"/>
		<circle class="st7" cx="89.1" cy="103" r="6"/>
		<circle class="st6" cx="43.9" cy="327.6" r="4.7"/>
		<circle class="st6" cx="50.5" cy="132.3" r="2"/>
		<path class="st7" d="M563.6,20.2c-0.8,3.9-4.7,6.4-8.5,5.6c-3.9-0.8-6.4-4.7-5.6-8.5c0.8-3.9,4.7-6.4,8.5-5.6
			C561.8,12.5,564.4,16.3,563.6,20.2z"/>
		<path class="st7" d="M19.9,365.8c-0.8,3.9-4.7,6.4-8.5,5.6c-3.9-0.8-6.4-4.7-5.6-8.5s4.7-6.4,8.5-5.6
			C18.2,358.1,20.7,361.9,19.9,365.8z"/>
		<path class="st6" d="M501,63.8c-0.3,1.3-1.6,2.1-2.8,1.9c-1.3-0.3-2.1-1.6-1.9-2.8c0.3-1.2,1.6-2.1,2.8-1.9
			C500.3,61.3,501.2,62.6,501,63.8z"/>
	</g>
	<g id="OBJECTS_2_">
		<g>
			<g class="st8">
				<g>
					<path class="st9" d="M116,73.5c-1.2,0-2.4-0.5-3.3-1.5L102,61.3c-0.4-0.4-0.9-0.7-1.5-0.7H87.2c-3.7,0-6.6-2.9-6.6-6.6V29.2
						c0-3.7,2.9-6.6,6.6-6.6h42.5c3.7,0,6.6,2.9,6.6,6.6v24.9c0,3.7-2.9,6.6-6.6,6.6h-6.6c-1.2,0-2.1,0.9-2.1,2.1v5.8
						c0,2-1.2,3.7-2.9,4.4C117.2,73.4,116.6,73.5,116,73.5z M87.1,25.3c-2.3,0-4,1.7-4,4v24.9c0,2.3,1.7,4,4,4h13.3
						c1.3,0,2.5,0.5,3.5,1.5l10.8,10.8c0.7,0.7,1.5,0.8,2.4,0.4c0.8-0.4,1.3-1.1,1.3-2v-5.8c0-2.7,2.1-4.8,4.8-4.8h6.6
						c2.3,0,4-1.7,4-4V29.2c0-2.3-1.7-4-4-4H87.1z"/>
					<g>
						<path class="st9" d="M95.7,45.9c-2.3,0-4-1.7-4-4s1.7-4,4-4c2.3,0,4,1.7,4,4S98,45.9,95.7,45.9z M95.7,39.2
							c-1.5,0-2.7,1.2-2.7,2.7s1.2,2.7,2.7,2.7c1.5,0,2.7-1.2,2.7-2.7S97.2,39.2,95.7,39.2z"/>
						<path class="st9" d="M108.3,46.5c-2.3,0-4-1.7-4-4c0-2.3,1.7-4,4-4c2.3,0,4,1.7,4,4C112.3,44.8,110.6,46.5,108.3,46.5z
							 M108.3,39.9c-1.5,0-2.7,1.2-2.7,2.7s1.2,2.7,2.7,2.7c1.5,0,2.7-1.2,2.7-2.7S109.8,39.9,108.3,39.9z"/>
						<path class="st9" d="M120.3,46.5c-2.3,0-4-1.7-4-4c0-2.3,1.7-4,4-4c2.3,0,4,1.7,4,4C124.3,44.8,122.6,46.5,120.3,46.5z
							 M120.3,39.9c-1.5,0-2.7,1.2-2.7,2.7s1.2,2.7,2.7,2.7c1.5,0,2.7-1.2,2.7-2.7S121.8,39.9,120.3,39.9z"/>
					</g>
				</g>
			</g>
			<g>
				<g>
					<path class="st10" d="M714.7,448.1c-1.3-0.5-2.1-1.9-2.1-3.3v-4.4c0-0.9-0.7-1.6-1.6-1.6h-4.9c-2.7,0-4.9-2.3-4.9-4.9v-18.3
						c0-2.7,2.3-4.9,4.9-4.9h31.4c2.7,0,4.9,2.3,4.9,4.9v18.3c0,2.7-2.3,4.9-4.9,4.9h-9.8c-0.4,0-0.8,0.1-1.1,0.4l-8,8
						c-0.7,0.7-1.6,1.1-2.5,1.1C715.6,448.3,715.1,448.2,714.7,448.1z M706.1,412.7c-1.6,0-2.9,1.3-2.9,2.9V434
						c0,1.6,1.3,2.9,2.9,2.9h4.9c2,0,3.6,1.6,3.6,3.6v4.4c0,0.7,0.4,1.2,0.9,1.5c0.7,0.3,1.2,0.1,1.7-0.4l8-8
						c0.7-0.7,1.6-1.1,2.5-1.1h9.8c1.6,0,2.9-1.3,2.9-2.9v-18.3c0-1.6-1.3-2.9-2.9-2.9L706.1,412.7L706.1,412.7z"/>
					<g>
						<path class="st10" d="M728.1,424.9c0-1.6,1.3-2.9,2.9-2.9s2.9,1.3,2.9,2.9s-1.3,2.9-2.9,2.9S728.1,426.5,728.1,424.9z
							 M729.1,424.9c0,1.1,0.9,2,2,2c1.1,0,2-0.9,2-2c0-1.1-0.9-2-2-2C730,422.9,729.1,423.9,729.1,424.9z"/>
						<path class="st10" d="M718.8,425.5c0-1.6,1.3-2.9,2.9-2.9s2.9,1.3,2.9,2.9s-1.3,2.9-2.9,2.9S718.8,427.1,718.8,425.5z
							 M719.8,425.5c0,1.1,0.9,2,2,2c1.1,0,2-0.9,2-2s-0.9-2-2-2C720.7,423.5,719.8,424.4,719.8,425.5z"/>
						<path class="st10" d="M709.9,425.5c0-1.6,1.3-2.9,2.9-2.9s2.9,1.3,2.9,2.9s-1.3,2.9-2.9,2.9
							C711.2,428.4,709.9,427.1,709.9,425.5z M711,425.5c0,1.1,0.9,2,2,2c1.1,0,2-0.9,2-2s-0.9-2-2-2
							C711.8,423.5,711,424.4,711,425.5z"/>
					</g>
				</g>
			</g>
			<g>
				<g>
					<path class="st10" d="M179.3,378.3H142c-2.8,0-5.1-2.3-5.1-5.1v-27.4c0-2.8,2.3-5.1,5.1-5.1h37.3c2.8,0,5.1,2.3,5.1,5.1v27.4
						C184.2,376,182,378.3,179.3,378.3z M142,342.1c-2,0-3.7,1.6-3.7,3.7v27.4c0,2,1.6,3.7,3.7,3.7h37.3c2,0,3.7-1.6,3.7-3.7v-27.4
						c0-2-1.6-3.7-3.7-3.7H142z"/>
					<path class="st10" d="M196.6,371.2c-0.1,0-0.3,0-0.3,0l-12.5-3.3c-0.5-0.1-0.9-0.7-0.9-1.2v-14.5c0-0.5,0.4-1.1,0.9-1.2
						l12.5-3.3c0.4-0.1,0.8,0,1.1,0.3c0.3,0.3,0.5,0.5,0.5,0.9V370c0,0.4-0.1,0.7-0.5,0.9C197.1,371.2,196.9,371.2,196.6,371.2z
						 M196.7,369.9L196.7,369.9L196.7,369.9z M184.2,366.7l12.2,3.3v-20.9l-12.2,3.3V366.7z M184.2,366.6L184.2,366.6L184.2,366.6z"
						/>
					<path class="st10" d="M152.5,341.9c-0.4,0-0.7-0.3-0.7-0.7v-2.9h-7.7v2.9c0,0.4-0.3,0.7-0.7,0.7s-0.7-0.3-0.7-0.7v-3.1
						c0-0.7,0.5-1.2,1.2-1.2h8c0.7,0,1.2,0.5,1.2,1.2v3.1C153.1,341.5,152.9,341.9,152.5,341.9z"/>
					<path class="st10" d="M162.8,341.9c-0.4,0-0.7-0.3-0.7-0.7v-2.4h-6.4v2.4c0,0.4-0.3,0.7-0.7,0.7s-0.7-0.3-0.7-0.7v-2.5
						c0-0.7,0.5-1.1,1.1-1.1h6.8c0.7,0,1.1,0.5,1.1,1.1v2.5C163.5,341.5,163.2,341.9,162.8,341.9z"/>
					<path class="st10" d="M159.6,371.2c-6.6,0-12-5.3-12-12s5.3-12,12-12c6.6,0,12,5.3,12,12S166.3,371.2,159.6,371.2z
						 M159.6,348.6c-5.8,0-10.6,4.8-10.6,10.6s4.8,10.6,10.6,10.6c5.8,0,10.6-4.8,10.6-10.6S165.5,348.6,159.6,348.6z"/>
					<path class="st10" d="M157.8,365.5c-0.1,0-0.3,0-0.4-0.1c-0.3-0.1-0.5-0.5-0.5-0.8v-10.5c0-0.4,0.3-0.7,0.5-0.8
						c0.3-0.1,0.7-0.1,1.1,0.1l6.9,5.3c0.3,0.1,0.4,0.4,0.4,0.8c0,0.3-0.1,0.5-0.4,0.8l-6.9,5.3
						C158.2,365.4,157.9,365.5,157.8,365.5z M157.5,364.2L157.5,364.2L157.5,364.2z M158,354.8v9l6-4.5L158,354.8z"/>
					<path class="st10" d="M176,351.8c-1.9,0-3.3-1.5-3.3-3.3s1.5-3.3,3.3-3.3c1.9,0,3.3,1.5,3.3,3.3S177.8,351.8,176,351.8z
						 M176,346.4c-1.1,0-2,0.9-2,2s0.9,2,2,2c1.1,0,2-0.9,2-2C178,347.3,177.1,346.4,176,346.4z"/>
					<path class="st10" d="M192.2,364.5c-0.4,0-0.7-0.3-0.7-0.7v-12.6c0-0.4,0.3-0.7,0.7-0.7s0.7,0.3,0.7,0.7v12.6
						C192.9,364.2,192.6,364.5,192.2,364.5z"/>
				</g>
			</g>
			<g class="st11">
				<path class="st9" d="M874.6,141.3h-41.5c-2.8,0-5.1-2.3-5.1-5.1v-30.7c0-2.8,2.3-5.1,5.1-5.1h41.5c2.8,0,5.1,2.3,5.1,5.1v30.7
					C879.5,139,877.4,141.3,874.6,141.3z M833.1,101.8c-2,0-3.7,1.6-3.7,3.7v30.7c0,2,1.6,3.7,3.7,3.7h41.5c2,0,3.7-1.6,3.7-3.7
					v-30.7c0-2-1.6-3.7-3.7-3.7H833.1z"/>
				<path class="st9" d="M893.1,133.7c-0.1,0-0.3,0-0.3,0l-13.6-3.6c-0.5-0.1-0.9-0.7-0.9-1.2v-16c0-0.5,0.4-1.1,0.9-1.2l13.6-3.6
					c0.4-0.1,0.8,0,1.1,0.3c0.3,0.3,0.5,0.5,0.5,0.9v23.1c0,0.4-0.1,0.8-0.5,0.9C893.6,133.6,893.3,133.7,893.1,133.7z M893.1,132.4
					L893.1,132.4L893.1,132.4z M892.9,109.4l-13.4,3.6v15.8l13.4,3.6V109.4z"/>
				<path class="st9" d="M845,101.5c-0.4,0-0.7-0.3-0.7-0.7v-3.3l-8.6,0.1l0.1,3.2c0,0.4-0.3,0.7-0.7,0.7s-0.7-0.3-0.7-0.7v-3.3
					c0-0.7,0.5-1.2,1.2-1.2h8.6c0.7,0,1.2,0.5,1.2,1.2v3.3C845.6,101.3,845.4,101.5,845,101.5z"/>
				<path class="st9" d="M856.3,101.5c-0.4,0-0.7-0.3-0.7-0.7v-2.7h-7v2.7c0,0.4-0.3,0.7-0.7,0.7s-0.7-0.3-0.7-0.7v-2.8
					c0-0.7,0.5-1.2,1.2-1.2h7.4c0.7,0,1.2,0.5,1.2,1.2v2.8C856.9,101.3,856.7,101.5,856.3,101.5z"/>
				<path class="st9" d="M852.8,133.6c-7.2,0-13-5.8-13-13s5.8-13,13-13s13,5.8,13,13C865.8,127.7,860,133.6,852.8,133.6z
					 M852.8,109c-6.4,0-11.7,5.2-11.7,11.7c0,6.4,5.2,11.7,11.7,11.7c6.4,0,11.7-5.2,11.7-11.7C864.5,114.2,859.3,109,852.8,109z"/>
				<path class="st9" d="M850.7,127.3c-0.1,0-0.3,0-0.4-0.1c-0.4-0.1-0.5-0.5-0.5-0.9v-11.4c0-0.4,0.3-0.7,0.5-0.9
					c0.4-0.1,0.8-0.1,1.1,0.1l7.6,5.7c0.3,0.1,0.4,0.5,0.4,0.8s-0.1,0.5-0.4,0.8l-7.6,5.7C851.1,127.3,850.9,127.3,850.7,127.3z
					 M851.1,115.6v10.1l6.6-5.1L851.1,115.6z M858,121L858,121L858,121z M858,120.4L858,120.4L858,120.4z"/>
				<path class="st9" d="M870.6,112.4c-2,0-3.6-1.6-3.6-3.6c0-2,1.6-3.6,3.6-3.6s3.6,1.6,3.6,3.6
					C874.2,110.9,872.6,112.4,870.6,112.4z M870.6,106.6c-1.2,0-2.3,1.1-2.3,2.3c0,1.2,1.1,2.3,2.3,2.3s2.3-1.1,2.3-2.3
					C872.9,107.5,871.8,106.6,870.6,106.6z"/>
				<path class="st9" d="M888.3,126.3c-0.4,0-0.7-0.3-0.7-0.7v-13.8c0-0.4,0.3-0.7,0.7-0.7s0.7,0.3,0.7,0.7v13.8
					C889,125.9,888.7,126.3,888.3,126.3z"/>
			</g>
			<g>
				<g>
					<g>
						<g>
							<circle class="st12" cx="663.9" cy="327.2" r="25"/>
						</g>
						<g>
							<g>
								<g>
									<path class="st13" d="M673,322.3c0,5.1-4.1,9.2-9.2,9.2c-5.1,0-9.2-4.1-9.2-9.2c0-5.1,4.1-9.2,9.2-9.2
										C669,313.3,673,317.3,673,322.3z"/>
								</g>
								<g>
									<path class="st13" d="M676.2,341.2c0,0.3-24.6,0.3-24.6,0c0-6.8,5.4-12.2,12.2-12.2C670.7,328.8,676.2,334.4,676.2,341.2z"
										/>
								</g>
							</g>
						</g>
					</g>
					<g>
						<rect x="702.9" y="306" class="st12" width="67.7" height="10.8"/>
					</g>
					<g>
						<rect x="702.9" y="325.1" class="st12" width="83.3" height="6.9"/>
					</g>
					<g>
						<rect x="702.9" y="340.7" class="st12" width="83.3" height="6.9"/>
					</g>
				</g>
			</g>
			<g>
				<g>
					<g>
						<g>
							<circle class="st12" cx="214.9" cy="430.9" r="25"/>
						</g>
						<g>
							<g>
								<g>
									<path class="st13" d="M205.8,426c0,5.1,4.1,9.2,9.2,9.2c5.1,0,9.2-4.1,9.2-9.2s-4.1-9.2-9.2-9.2
										C209.9,417,205.8,421,205.8,426z"/>
								</g>
								<g>
									<path class="st13" d="M202.6,444.9c0,0.3,24.6,0.3,24.6,0c0-6.8-5.4-12.2-12.2-12.2C208.2,432.6,202.6,438.1,202.6,444.9z"
										/>
								</g>
							</g>
						</g>
					</g>
					<g>
						<rect x="113.6" y="409.7" class="st12" width="67.7" height="10.8"/>
					</g>
					<g>
						<rect x="98" y="428.8" class="st12" width="83.3" height="6.9"/>
					</g>
					<g>
						<rect x="98" y="444.3" class="st12" width="83.3" height="6.9"/>
					</g>
				</g>
			</g>
		</g>
		<g>
			<g>
				<g>
					<path class="st14" d="M461,257.1V111.5c0-12.5,10.1-22.5,22.5-22.5h302.1c12.5,0,22.5,10.1,22.5,22.5v145.5
						c0,12.5-10.1,22.5-22.5,22.5H483.4C471.1,279.7,461,269.6,461,257.1z"/>
					<path class="st14" d="M461,257.1V111.5c0-12.5,10.1-22.5,22.5-22.5h302.1c12.5,0,22.5,10.1,22.5,22.5v145.5
						c0,12.5-10.1,22.5-22.5,22.5H483.4C471.1,279.7,461,269.6,461,257.1z"/>
					<path class="st15" d="M466,252.3V114.4c0-11.8,9.8-21.3,21.8-21.3H781c12.1,0,21.8,9.6,21.8,21.3v137.8
						c0,11.8-9.8,21.3-21.8,21.3H487.9C475.8,273.7,466,264.1,466,252.3z"/>
					<path class="st16" d="M469.1,254.3V114.4c0-8.4,6.8-15.2,15.2-15.2H783c8.4,0,15.2,6.8,15.2,15.2v139.8
						c0,8.4-6.8,15.2-15.2,15.2H484.2C475.8,269.6,469.1,262.6,469.1,254.3z"/>
					<path class="st17" d="M788.6,267.8c2,0,4.1-0.8,5.4-3.1c2.7-2.8,4.3-6.5,4.3-10.6V114.4c0-5.8-3.3-10.9-8.1-13.4
						c-0.5-0.1-1.1-0.1-1.6-0.1V267.8z"/>
					<rect x="481.8" y="109" class="st18" width="292.4" height="151.5"/>
					<rect x="481.8" y="109" class="st19" width="292.4" height="47.9"/>
				</g>
				<g>
					<path class="st20" d="M760.8,89.3L760.8,89.3c0-0.8,0.7-1.6,1.6-1.6h9.8c0.8,0,1.6,0.7,1.6,1.6l0,0c0,0.8-0.7,1.6-1.6,1.6h-10
						C761.5,90.8,760.8,90.1,760.8,89.3z"/>
					<path class="st20" d="M719.1,280.2L719.1,280.2c0-0.8,0.7-1.6,1.6-1.6h22.6c0.8,0,1.6,0.7,1.6,1.6l0,0c0,0.8-0.7,1.6-1.6,1.6
						h-22.6C719.9,281.8,719.1,281.1,719.1,280.2z"/>
					<path class="st20" d="M719.1,89.3L719.1,89.3c0-0.8,0.7-1.6,1.6-1.6h22.6c0.8,0,1.6,0.7,1.6,1.6l0,0c0,0.8-0.7,1.6-1.6,1.6
						h-22.6C719.9,90.8,719.1,90.1,719.1,89.3z"/>
					<path class="st20" d="M688.5,89.3L688.5,89.3c0-0.8,0.7-1.6,1.6-1.6h22.6c0.8,0,1.6,0.7,1.6,1.6l0,0c0,0.8-0.7,1.6-1.6,1.6
						h-22.6C689.2,90.8,688.5,90.1,688.5,89.3z"/>
				</g>
			</g>
			<g>
				<g>
					<defs>
						<path id="SVGID_1_" d="M469.1,254.3V114.4c0-8.4,6.8-15.2,15.2-15.2h111l4.9-79.4l102.3-5.3l2,84.5H783
							c8.4,0,15.2,6.8,15.2,15.2v139.8c0,8.4-6.8,15.2-15.2,15.2H484.2C475.8,269.6,469.1,262.6,469.1,254.3z"/>
					</defs>
					<clipPath id="SVGID_2_">
						<use xlink:href="#SVGID_1_"  style="overflow:visible;"/>
					</clipPath>
					<g class="st21">
						<g>
							<path class="st22" d="M701.5,184.1c-1.9-0.4-3.6-0.9-5.3-1.2c-5.6-1.6-12.1-2.7-19-3.1l0,0c-0.3,0-0.3,0-0.1,0
								c-1.7-0.1-3.5-0.1-5.3-0.1h-5.2h-7h-7h-5.2c-1.7,0-3.6,0-5.3,0.1c0.1,0,0.1,0-0.1,0l0,0c-6.9,0.4-13.4,1.5-19,3.1
								c-1.7,0.4-3.5,0.8-5.3,1.2c-28.3,7-48.9,31.9-51.8,61.1c-0.3,0.5-0.5,1.1-0.8,1.6l0.7,0.4c-0.1,2-0.3,4-0.1,6l0.1,16.6H648
								l0.3-0.9h22.5l0.3,0.9h82.4l0.1-16.6C754,220.5,732.4,191.8,701.5,184.1z"/>
							<g>
								<path class="st23" d="M752.6,180.5c-7.8-3.7-17.3-13.6-17.3-13.6l-6.5-7c-1.2-1.2-1.3-3.1-0.4-4.4c1.3-1.7,3.7-1.7,5.1-0.3
									c0,0,3.7,4,6.2,6.6c1.1,1.1,2.9,0.4,2.9-1.2c-0.1-2.3-1.1-4.4-2.1-6l-14.8-19.3c-1.1-1.5-0.8-3.6,0.7-4.7l0,0
									c2.3,0,5.3,1.5,6.8,3.3l8.6,11.3c0.4,0.5,1.3,0.8,2,0.5l0.4-0.3c0.8-0.4,1.2-1.3,0.8-2.1l-7.7-19.5
									c-0.7-1.6-0.1-3.5,1.3-4.3c1.9-1.1,4.1-0.3,4.8,1.6l7.4,18.9c0.4,1.1,1.6,1.7,2.7,1.5c1.2-0.4,2-1.6,1.7-2.9l-4-17.8
									c-0.4-1.6,0.4-3.3,2-4c2-0.8,4.1,0.4,4.5,2.4l4.1,18.6c0.3,1.2,0.9,2.4,1.9,3.2c1.1,0.9,2.9,0.1,2.9-1.3v-8.5
									c0-1.7,1.2-3.3,2.9-3.5c2-0.3,3.7,1.3,3.7,3.3l0.5,18.7c1.1,11.4,0.4,25.4,0.4,25.4v124.4c0,15.6-15.4,26.6-30.2,21.5l0,0
									c-6.1,4-14.1-1.1-12.9-8.4L752.6,180.5z"/>
								<path class="st24" d="M758,165.5L758,165.5c0.5-0.3,0.7-0.8,0.4-1.2c-2-3.3-4.7-5.3-7.6-5.7c-5.1-0.8-9.4,2.7-9.6,2.8
									c-0.4,0.3-0.4,0.8-0.1,1.2c0.3,0.4,0.8,0.4,1.2,0.1c0,0,4-3.2,8.2-2.4c2.5,0.4,4.7,2.1,6.5,5.1
									C757.2,165.5,757.6,165.6,758,165.5z"/>
							</g>
						</g>
						<g>
							<g>
								<path class="st24" d="M603.2,73.2c-0.4-6.6,2.4-12.6,6.9-16.6c-0.8-1.7-1.2-3.6-1.3-5.7c-0.5-9.4,6.8-17.4,16.1-17.9
									c2.7-0.1,5.1,0.4,7.3,1.3c2.5-6.5,8.6-11.2,16-11.6c7.4-0.4,14,3.7,17.1,9.8c2.1-1.2,4.7-1.9,7.2-2
									c9.4-0.5,17.4,6.8,17.9,16.1c0,1.1,0,2.3-0.1,3.3c7,3.1,12.2,9.8,12.6,18.1c0.5,10.8-7.2,20.1-17.7,21.7
									c0.5,11.3-61.3,14.5-61.9,3.3C612.6,92.8,603.7,84.3,603.2,73.2z"/>
							</g>
							<g>
								<path class="st23" d="M701.4,120.8c-0.4-7-5.6-12.6-11.7-12.2l-1.5,0.1l-0.8-15.4c-0.1-3.3-1.1-6.5-2.4-9.3
									c-1.3,0.3-2.7,0.5-4,0.7c-8.4,0.4-15.8-3.9-19.8-10.6c-3.2,2-7,3.3-11,3.5c-4.1,0.3-8-0.7-11.4-2.3
									c-3.3,7-10.2,12.1-18.5,12.6c-0.9,2.9-1.5,6-1.2,9.2l0.8,15.4c-5.8,0.7-10.1,6.5-9.8,13.4c0.4,6.9,5.3,12.2,11.2,12.2
									l0.3,5.4c0.5,9.2,9.8,16.6,18.6,20.6l1.6,25.9c0.5,9.2,8.1,16.2,17.3,16.2c10,0,17.8-8.4,17.3-18.2l-1.5-27.4
									c7.4-4.9,15.6-12.6,15.2-20.7l-0.3-5.3l1.5-0.1C697.2,134,701.8,127.9,701.4,120.8z"/>
								<path class="st25" d="M647.3,164.6c-2.5,0.1-4.9-0.1-7.3-0.8l1.2,11.6l26.2-12.1c-0.9,0.1-2,0.3-3.1,0.4L647.3,164.6z"/>
							</g>
							<g>
								<g>
									<path class="st24" d="M660.3,154.1c-0.1,0-0.3,0-0.4-0.3c-0.9-1.3-2.4-2.1-4-2c-1.6,0.1-3.1,1.1-3.7,2.4
										c-0.1,0.3-0.4,0.3-0.7,0.3c-0.3-0.1-0.3-0.4-0.3-0.7c0.9-1.7,2.7-2.8,4.5-2.9c1.9-0.1,3.7,0.8,4.8,2.4
										c0.1,0.3,0.1,0.5-0.1,0.7C660.5,154.1,660.5,154.1,660.3,154.1z"/>
									<path class="st24" d="M613.7,123.7c-0.5,0-0.9-0.4-0.9-0.9c-0.3-5.7,4-7.4,6.2-7.6c0.5,0,0.9,0.4,0.9,0.9
										c0,0.5-0.4,0.9-0.9,0.9s-4.8,0.4-4.5,5.6C614.6,123.3,614.2,123.7,613.7,123.7z"/>
									<path class="st24" d="M697,119.4c-0.5,0-0.9-0.4-0.9-0.9c-0.3-5.3-4.9-5.1-5.1-5.1c-0.5,0-0.9-0.4-0.9-0.9
										c0-0.5,0.4-0.9,0.9-0.9c2.3-0.1,6.8,1.2,7,6.8C697.8,119,697.6,119.4,697,119.4z"/>
									<path class="st24" d="M639.1,123.2L639.1,123.2c-1.1,0-1.9-0.8-2-1.7l-0.1-3.7c0-1.1,0.8-1.9,1.7-2l0,0
										c1.1,0,1.9,0.8,2,1.7l0.1,3.7C640.8,122.2,640,123.1,639.1,123.2z"/>
									<path class="st24" d="M667,121.6L667,121.6c-1.1,0-1.9-0.8-2-1.7l-0.1-3.7c0-1.1,0.8-1.9,1.7-2l0,0c1.1,0,1.9,0.8,2,1.7
										l0.1,3.7C668.8,120.7,668,121.6,667,121.6z"/>
									<g>
										<path class="st24" d="M642.9,109.5c-0.8,0.5-2,0.5-3.2,0.7c-1.2,0.1-2.3,0.1-3.3,0.3c-1.1,0.1-2.1,0.3-3.3,0.5
											c-1.1,0.1-2.3,0.4-3.2,0.1c-0.9-0.3-1.5-1.2-0.5-2.7c0.8-1.3,3.1-3.1,6.4-3.5c3.3-0.4,6,0.7,7,1.9
											C643.9,108.1,643.7,109.1,642.9,109.5z"/>
									</g>
									<g>
										<path class="st24" d="M672.8,108.1c-0.9,0.4-2.1,0.1-3.2,0c-1.2-0.1-2.3-0.3-3.3-0.3c-1.1,0-2.1-0.1-3.3-0.1
											s-2.4,0-3.2-0.4c-0.8-0.4-1.1-1.5,0.1-2.7c1.1-1.2,3.7-2.4,7-2.3c3.3,0.3,5.6,1.7,6.4,3.1
											C674.3,106.7,673.8,107.8,672.8,108.1z"/>
									</g>
									<path class="st10" d="M663.9,146.7l-3.1,0.1c-1.5,0.1-2.7-0.8-2.8-2l-0.3-5.6l16.5-2.8v0.9
										C674.7,142.4,670,146.5,663.9,146.7z"/>
								</g>
								<path class="st24" d="M658.3,134.5l-4.1,0.3c-4,0.3-7.4-2.9-7.6-6.9c-0.1-1.9,1.3-3.5,3.2-3.5c2.3-0.1,4.1-2.1,4-4.4
									l-0.3-5.6c0-0.4,0.3-0.8,0.7-0.8s0.8,0.3,0.8,0.7l0.3,5.6c0.1,3.2-2.3,5.8-5.4,6c-1.1,0-1.7,0.9-1.7,1.9
									c0.1,3.2,2.9,5.6,6,5.4l4.1-0.3c0.4,0,0.8,0.3,0.8,0.7C659.1,134.1,658.7,134.4,658.3,134.5z"/>
							</g>
						</g>
					</g>
				</g>
				<g>
					<defs>
						<path id="SVGID_3_" d="M469.1,254.3V114.4c0-8.4,6.8-15.2,15.2-15.2h111l4.9-79.4l102.3-5.3l2,84.5H783
							c8.4,0,15.2,6.8,15.2,15.2v139.8c0,8.4-6.8,15.2-15.2,15.2H484.2C475.8,269.6,469.1,262.6,469.1,254.3z"/>
					</defs>
					<clipPath id="SVGID_4_">
						<use xlink:href="#SVGID_3_"  style="overflow:visible;"/>
					</clipPath>
					<g class="st26">
						<path class="st24" d="M616.1,239.7c2.3-8.2,1.5-17.7-2.1-25c-2.4-5.2-6-10.9-3.7-16.5c0.7-1.7,2-3.2,2.9-4.8
							c5.1-8.1,3.5-17,1.3-25.7c-0.9-4-2.9-7.7-4.4-11.6c-1.6-4.4-2.8-8.8-4.3-13.3c-2.5-7.8-5.6-15.6-11-21.7
							c-5.1-5.6-12-9.4-19.1-11.4c-9-2.5-18.6-2.4-27.6,0.3c-9.2,2.7-17.1,8.6-24.5,14.8c-7.6,6.1-14.2,14-17.5,23.3
							c-1.3,3.5-2,7-2.4,10.8c-0.5,5.7,0.3,11.3-0.1,17c-0.8,11.4-8.4,18.6-14.1,27.8c-3.5,5.4-5.8,12.1-4.4,18.5
							c2,8.6,10.2,14,18.1,17.8c17.7,8.6,36.7,14.6,56.1,17.9c15.4,2.7,35,6.1,48.5-4.7C611.8,249.8,614.6,245,616.1,239.7z"/>
						<g>
							<g>
								<g>
									<path class="st27" d="M610.8,268.9c-9.8-17.8-21.7-28.7-30.8-35.1c-4.3-3.9-9.4-6.6-15.2-8.2l0,0c-0.3,0-0.3,0-0.1,0
										c-1.5-0.4-2.9-0.7-4.4-0.9l-4.4-0.7l-11.6-1.7l-4.4-0.7c-1.5-0.3-3.1-0.4-4.5-0.4l0.1-0.3c0,0-38-2.3-73.6,46.3
										C462,267.2,614.5,275.7,610.8,268.9z"/>
								</g>
							</g>
						</g>
						<g>
							<g>
								<path class="st28" d="M543.6,138.5c-1.1,8-4,16.1-10.9,19.5l-2.1-3.5l-0.5-0.1c-5.3-0.8-10.4,3.1-11.3,8.6l0,0
									c-0.9,5.6,2.8,10.8,8.1,11.6l1.3,0.3l-0.1,1.2c-1.9,11.8,3.5,23.3,12.6,29.8l-4,25.7c-1.1,6.8,3.6,13,10.2,14.1
									c6.8,1.1,13-3.6,14.1-10.2l3.9-24.5c12.1-2.7,21.8-12.4,23.8-25.3l0.1-1.3c4.8,0.1,9.2-3.6,10-8.6l0,0
									c0.8-5.2-2.3-10-6.8-11.3l1.1-6.4C568.6,156.2,551.9,145.3,543.6,138.5z"/>
							</g>
							<g>
								<path class="st29" d="M552.3,208.7l-6-1.3c-2.1-0.4-4-1.2-5.8-2.1l-1.5,9.6l21.8-5.3l-0.4-0.4
									C557.7,209.3,555.1,209.2,552.3,208.7z"/>
								<g>
									<g>
										<g>
											<path class="st30" d="M572.9,187.8l6.1,0.9c2,0.3,3.7-1.1,4-2.9l0,0c0.3-2-1.1-3.7-2.9-4l-6.1-0.9c-2-0.3-3.7,1.1-4,2.9
												l0,0C569.6,185.8,571,187.5,572.9,187.8z"/>
											<path class="st30" d="M540,183l6.1,0.9c2,0.3,3.7-1.1,4-2.9l0,0c0.3-2-1.1-3.7-2.9-4l-6.1-0.9c-2-0.3-3.7,1.1-4,2.9l0,0
												C536.7,180.9,538.1,182.8,540,183z"/>
											<path class="st31" d="M560.9,183.4c-0.3,0-0.5,0-0.7-0.1l-2.3-0.4c-0.4,0-0.7-0.4-0.7-0.8s0.4-0.7,0.8-0.7l2.3,0.4
												c1.2,0.1,2.3,0,3.2-0.5c0.8-0.5,1.3-1.2,1.5-2l0.1-1.1c0-0.3-0.1-0.4-0.3-0.5c-0.3-0.3-0.5-0.4-0.9-0.4
												c-1.9-0.3-3.3-1.7-3.1-3.3l0.8-5.4c0-0.4,0.4-0.7,0.8-0.7c0.4,0,0.7,0.4,0.7,0.8l-0.8,5.4c-0.1,0.8,0.7,1.5,1.9,1.7
												c0.7,0.1,1.3,0.4,1.7,0.8c0.5,0.5,0.7,1.2,0.7,1.7l-0.1,1.1c-0.1,1.2-0.9,2.4-2.3,3.1
												C563.4,183.2,562.2,183.4,560.9,183.4z"/>
											<g>
												<path class="st24" d="M575.7,177.8L575.7,177.8c1.1,0.1,2-0.5,2.1-1.6l0.5-3.6c0.1-1.1-0.5-2-1.6-2.1l0,0
													c-1.1-0.1-2,0.5-2.1,1.6l-0.5,3.6C573.9,176.8,574.7,177.7,575.7,177.8z"/>
											</g>
											<g>
												<path class="st24" d="M547.4,173.3L547.4,173.3c1.1,0.1,2-0.5,2.1-1.6l0.5-3.6c0.1-1.1-0.5-2-1.6-2.1l0,0
													c-1.1-0.1-2,0.5-2.1,1.6l-0.5,3.6C545.6,172.3,546.3,173.2,547.4,173.3z"/>
											</g>
											<path class="st31" d="M572.9,176.9c0.1,0,0.3,0,0.3,0.1c2.8,2.1,5.4,1.1,5.4,1.1c0.3-0.1,0.7,0,0.8,0.3
												c0.1,0.3,0,0.7-0.3,0.8c-0.1,0-3.3,1.3-6.8-1.2c-0.3-0.3-0.3-0.5-0.1-0.8C572.5,177,572.7,176.9,572.9,176.9z"/>
											<path class="st31" d="M543.9,171.7c0.1,0,0.3,0,0.3,0.1c2.8,2.1,5.4,1.1,5.4,1.1c0.3-0.1,0.7,0,0.8,0.3
												c0.1,0.3,0,0.7-0.3,0.8c-0.1,0-3.3,1.3-6.8-1.2c-0.3-0.3-0.3-0.5-0.1-0.8C543.5,171.7,543.6,171.7,543.9,171.7z"/>
										</g>
										<path class="st31" d="M552.5,184.8c-0.4,0-0.7,0.3-0.7,0.7c0,1.3,0.4,2.4,1.3,3.2c2.7,2.3,8.5,1.3,8.8,1.3
											c0.4,0,0.7-0.4,0.5-0.8c0-0.4-0.4-0.7-0.8-0.5c0,0-5.4,0.9-7.7-0.9c-0.7-0.5-0.9-1.2-0.8-2.1
											C553.2,185,552.9,184.8,552.5,184.8L552.5,184.8z"/>
									</g>
									<g>
										<g>
											<path class="st24" d="M555.9,162c-0.7,0.1-1.6-0.1-2.4-0.3c-0.8-0.3-1.6-0.4-2.4-0.5c-0.7-0.1-1.6-0.3-2.4-0.4
												c-0.8-0.1-1.7-0.3-2.3-0.7c-0.5-0.4-0.7-1.2,0.3-2c0.9-0.8,2.9-1.3,5.3-0.8s4,1.9,4.4,2.9
												C556.9,161.1,556.5,161.9,555.9,162z"/>
										</g>
									</g>
									<g>
										<g>
											<path class="st24" d="M581.8,164.6c-0.7,0.3-1.6,0.1-2.4,0c-0.8-0.1-1.7-0.1-2.4-0.3c-0.8,0-1.6,0-2.4,0s-1.7,0-2.4-0.3
												c-0.7-0.3-0.8-1.1,0-2c0.8-0.9,2.7-1.7,5.1-1.6c2.4,0.1,4.1,1.2,4.8,2.3C582.7,163.5,582.5,164.3,581.8,164.6z"/>
										</g>
									</g>
								</g>
							</g>
							<path class="st31" d="M561.2,198c0.1,0,0.1,0,0.3,0c0.3-0.1,0.3-0.4,0.1-0.7c-0.7-1.2-1.9-1.9-3.2-1.9s-2.5,0.7-3.2,1.9
								c-0.1,0.3,0,0.5,0.1,0.7c0.3,0.1,0.5,0,0.7-0.1c0.5-0.9,1.5-1.5,2.5-1.5c1.1,0,2,0.5,2.5,1.5
								C560.8,197.9,561.1,198,561.2,198z"/>
						</g>
					</g>
				</g>
			</g>
		</g>
		<g>
			<g>
				<g>
					<path class="st20" d="M151.1,293.5L151.1,293.5c0,0.8-0.7,1.6-1.6,1.6h-9.8c-0.8,0-1.6-0.7-1.6-1.6l0,0c0-0.8,0.7-1.6,1.6-1.6
						h9.8C150.5,292,151.1,292.7,151.1,293.5z"/>
					<path class="st20" d="M192.7,125.2L192.7,125.2c0,0.8-0.7,1.6-1.6,1.6h-22.6c-0.8,0-1.6-0.7-1.6-1.6l0,0c0-0.8,0.7-1.6,1.6-1.6
						h22.6C192.1,123.6,192.7,124.3,192.7,125.2z"/>
					<path class="st20" d="M192.7,293.5L192.7,293.5c0,0.8-0.7,1.6-1.6,1.6h-22.6c-0.8,0-1.6-0.7-1.6-1.6l0,0c0-0.8,0.7-1.6,1.6-1.6
						h22.6C192.1,292,192.7,292.7,192.7,293.5z"/>
					<path class="st20" d="M223.3,293.5L223.3,293.5c0,0.8-0.7,1.6-1.6,1.6h-22.6c-0.8,0-1.6-0.7-1.6-1.6l0,0c0-0.8,0.7-1.6,1.6-1.6
						h22.6C222.6,292,223.3,292.7,223.3,293.5z"/>
				</g>
				<path class="st14" d="M438.6,146.3v126.4c0,11.7-9.4,21.1-21.1,21.1H114c-11.7,0-21.1-9.4-21.1-21.1V146.3
					c0-11.7,9.4-21.1,21.1-21.1h303.5C429.2,125.2,438.6,134.8,438.6,146.3z"/>
				<path class="st32" d="M434,150.1v119.1c0,11-9.2,19.9-20.6,19.9H117.1c-11.4,0-20.6-8.9-20.6-19.9V150.1
					c0-11,9.2-19.9,20.6-19.9h296.3C424.8,130.3,434,139.2,434,150.1z"/>
				<rect x="135.2" y="135" class="st10" width="263.3" height="148.9"/>
				<g>
					<g>
						<g class="st33">
							<path class="st14" d="M107,207.8c1.1,0,1.9,0.8,1.9,1.9c0,1.1-0.8,1.9-1.9,1.9s-1.9-0.8-1.9-1.9
								C105.1,208.5,105.9,207.8,107,207.8z"/>
						</g>
						<g class="st33">
							<path class="st14" d="M117.4,195.5v28.2c0,0.7-0.5,1.2-1.2,1.2l0,0c-0.7,0-1.2-0.5-1.2-1.2v-28.2c0-0.7,0.5-1.2,1.2-1.2l0,0
								C116.8,194.3,117.4,194.9,117.4,195.5z"/>
						</g>
					</g>
				</g>
				<g>
					<rect x="142.4" y="141.6" class="st34" width="246.2" height="133.1"/>
					<rect x="235.9" y="166.9" class="st19" width="152.6" height="82.5"/>
					<path class="st35" d="M377.9,152.3l-4.8,1.2c-0.1,0-0.1,0.1-0.1,0.1v-1.7c0-1.3-1.1-2.4-2.4-2.4h-12.8c-1.3,0-2.4,1.1-2.4,2.4
						v9c0,1.3,1.1,2.4,2.4,2.4h12.8c1.3,0,2.4-1.1,2.4-2.4v-1.7c0,0.1,0,0.1,0.1,0.1l4.8,1.2c0.1,0,0.3,0,0.3-0.1v-8
						C378.2,152.3,378,152.3,377.9,152.3z"/>
				</g>
				<path class="st36" d="M418.6,229.5h-1.1c-2.7,0-4.8-2.1-4.8-4.8v-30.3c0-2.7,2.1-4.8,4.8-4.8h1.1c2.7,0,4.8,2.1,4.8,4.8v30.3
					C423.3,227.4,421.2,229.5,418.6,229.5z"/>
			</g>
			<g>
				<g>
					<g>
						<path class="st28" d="M334.8,165.5l-0.4-14.2c0-1.5-1.3-2.7-2.8-2.5c-1.3,0.1-2.3,1.3-2.3,2.7v6.5c0,1.2-1.3,1.7-2.1,1.1
							c-0.7-0.7-1.2-1.5-1.5-2.4l-3.2-14.1c-0.3-1.5-1.9-2.3-3.3-1.9c-1.2,0.4-1.9,1.9-1.6,3.1l3.1,13.6c0.3,1.1-0.4,2-1.5,2.3
							c-0.8,0.1-1.6-0.3-1.9-1.1l-5.7-14.5c-0.5-1.3-2.1-2-3.6-1.3c-1.2,0.7-1.6,2.1-1.2,3.3l5.8,14.9c0.3,0.7,0,1.3-0.7,1.6
							l-0.4,0.1c-0.5,0.3-1.2,0.1-1.5-0.4l-7.7-10.1c-0.9-1.2-2.7-1.6-3.9-0.9l0,0c-1.1,0.8-1.3,2.4-0.5,3.6l11.2,14.6
							c0.8,1.2,1.6,2.9,1.6,4.5c0,1.2-1.5,1.7-2.1,0.9c-1.9-2-4.8-5.1-4.8-5.1c-1.1-1.1-2.8-1.1-3.7,0.1c-0.9,0.9-0.8,2.5,0.1,3.5
							l5.1,5.3c0,0,7.2,7.4,13.2,10.4l-6.1,64.6c1.7,2.9,3.5,6,5.2,9.2l-4,2.3L283,282.3l29.1,13.4c11.3,3.9,23-4.5,23-16.3v-94.8
							C335.1,184.8,335.6,174.1,334.8,165.5z"/>
						<path class="st7" d="M322.9,177.6C322.9,177.6,323,177.6,322.9,177.6c0.4-0.3,0.4-0.7,0.3-0.9c-1.6-2.5-3.5-4-5.8-4.4
							c-3.9-0.7-7.2,2-7.3,2.1c-0.3,0.3-0.3,0.7-0.1,0.9c0.3,0.3,0.7,0.3,0.9,0.1c0,0,3.1-2.4,6.4-1.9c1.9,0.3,3.6,1.6,4.9,3.9
							C322.3,177.6,322.6,177.7,322.9,177.6z"/>
					</g>
					<g>
						<polygon class="st28" points="144.2,283.1 178.6,283.1 144.2,263.7 						"/>
						<path class="st17" d="M317.7,262.8c-1.7-3.2-3.3-6.2-5.2-9.2c-29.5-49.4-66.3-52.9-66.3-52.9l-22.3-0.3h-4.8
							c-1.6,0-3.3,0.1-4.9,0.3c0.1,0,0.1,0-0.1,0l0,0c-6.5,0.8-12.5,2.9-17.7,6.4c-15.2,7.4-37,23.1-53.8,55.7l1.6,0.9l34.4,19.4
							l0.3,0.1l102.7-0.1l1.1-0.5l0.4-0.3l30.7-17.3L317.7,262.8z"/>
					</g>
				</g>
				<g>
					<path class="st37" d="M206,200.4c30.2,0,77.8-4.5,79.2-33.9c0,0-3.1-79.2-29.1-89.3c-7.8-3.1-16.2-4.4-23.5-4.1
						c-7.3-0.3-15.7,0.9-23.5,4.1c-26.1,10.2-26.6,46-26.6,46c1.5,29.4-4,26.3-14.8,45.1c-0.3,0.4-0.5,0.9-0.7,1.3
						c-8,15.8,4.4,34,22.2,33.8C199,203.2,205.5,200.4,206,200.4z"/>
					<g>
						<path class="st28" d="M263.2,127.2L263.2,127.2v-10.6c0-15.3-12-27.6-26.7-27.6h-6.8c-14.8,0-26.7,12.4-26.7,27.6v10.6l0,0
							c-5.3,0-9.6,4.3-9.6,9.6c0,5.3,4.3,9.6,9.6,9.6l0,0v6.6c0,12.1,7.6,22.3,18.1,26.1v20.9c0,6.6,5.4,12.1,12.1,12.1
							c6.6,0,12.1-5.4,12.1-12.1V179c10.5-3.7,18.1-14,18.1-26.1v-6.6l0,0c5.3,0,9.6-4.3,9.6-9.6
							C272.9,131.6,268.5,127.2,263.2,127.2z"/>
						<path class="st38" d="M229.7,180.6c-3.1,0-6-0.5-8.6-1.5v10.2l23-9.4l-0.4-0.3c-2.3,0.7-4.7,1.1-7.2,1.1h-6.8V180.6z"/>
						<g>
							<g>
								<path class="st39" d="M249.5,147.7h6c1.9,0,3.3-1.5,3.3-3.3l0,0c0-1.9-1.5-3.3-3.3-3.3h-6c-1.9,0-3.3,1.5-3.3,3.3l0,0
									C246,146.2,247.6,147.7,249.5,147.7z"/>
								<path class="st39" d="M214,147.7h6c1.9,0,3.3-1.5,3.3-3.3l0,0c0-1.9-1.5-3.3-3.3-3.3h-6c-1.9,0-3.3,1.5-3.3,3.3l0,0
									C210.5,146.2,212.1,147.7,214,147.7z"/>
								<path class="st31" d="M236.2,166.3c-0.3,0-0.4-0.1-0.5-0.3c-0.7-1.2-2-2-3.5-2c-1.5,0-2.8,0.8-3.5,2
									c-0.1,0.3-0.5,0.4-0.9,0.3c-0.3-0.1-0.4-0.5-0.3-0.9c0.9-1.6,2.7-2.7,4.7-2.7c1.9,0,3.7,1.1,4.7,2.7
									c0.1,0.3,0.1,0.7-0.3,0.9C236.3,166.3,236.3,166.3,236.2,166.3z"/>
								<path class="st24" d="M248,138.6L248,138.6c0.9,0,1.7-0.8,1.7-1.7v-3.6c0-0.9-0.8-1.7-1.7-1.7l0,0c-0.9,0-1.7,0.8-1.7,1.7
									v3.6C246.3,137.8,247.1,138.6,248,138.6z"/>
								<path class="st24" d="M221.6,138.6L221.6,138.6c0.9,0,1.7-0.8,1.7-1.7v-3.6c0-0.9-0.8-1.7-1.7-1.7l0,0
									c-0.9,0-1.7,0.8-1.7,1.7v3.6C219.8,137.8,220.6,138.6,221.6,138.6z"/>
								<g>
									<path class="st37" d="M242.8,125.5c0.7,0.5,1.7,0.7,2.7,0.9c0.9,0.1,2,0.4,2.8,0.7s1.9,0.5,2.8,0.8
										c0.9,0.3,1.9,0.7,2.8,0.5c0.8-0.1,1.3-0.9,0.8-2.3c-0.5-1.2-2.4-2.9-5.2-3.7c-2.8-0.7-5.2-0.1-6.2,0.8
										C242.2,124.1,242.2,125.1,242.8,125.5z"/>
								</g>
								<g>
									<path class="st37" d="M215.5,129.3c0.8,0.1,1.7-0.3,2.7-0.7s1.9-0.7,2.7-0.9s1.7-0.5,2.7-0.8c0.9-0.3,1.9-0.4,2.5-0.9
										c0.7-0.5,0.7-1.5-0.5-2.3c-1.1-0.8-3.5-1.2-6.1-0.4c-2.7,0.8-4.4,2.5-4.8,3.7C214.1,128.4,214.7,129.2,215.5,129.3z"/>
								</g>
								<g>
									<path class="st31" d="M224.8,140.2c-0.1,0-0.3,0-0.3-0.1c-3.1-1.5-5.2,0-5.3,0c-0.3,0.3-0.7,0.1-0.9-0.1
										c-0.3-0.3-0.1-0.7,0.1-0.9c0.1-0.1,2.9-1.9,6.6,0c0.3,0.1,0.4,0.5,0.3,0.9C225.2,140.1,224.9,140.2,224.8,140.2z"/>
									<path class="st31" d="M251.8,140.2c-0.1,0-0.3,0-0.3-0.1c-3.1-1.5-5.2,0-5.3,0c-0.3,0.3-0.7,0.1-0.9-0.1
										c-0.3-0.3-0.1-0.7,0.1-0.9c0.1-0.1,2.9-1.9,6.6,0c0.3,0.1,0.4,0.5,0.3,0.9C252.3,140.1,252,140.2,251.8,140.2z"/>
								</g>
								<path class="st31" d="M234.5,145.8h-2.5c-0.4,0-0.7-0.3-0.7-0.7s0.3-0.7,0.7-0.7h2.5c2.7,0,4.9-1.9,4.9-4.3v-1.5
									c0-0.7-0.7-1.2-1.5-1.2c-2,0-3.7-1.5-3.7-3.3v-6.9c0-0.4,0.3-0.7,0.7-0.7s0.7,0.3,0.7,0.7v6.9c0,1.1,1.1,2,2.4,2
									c1.6,0,2.8,1.2,2.8,2.5v1.5C240.7,143.4,237.9,145.8,234.5,145.8z"/>
								<path class="st10" d="M232.5,160.6h5.6c1.7,0,3.2-1.5,3.2-3.2v-6.1c0-1.1-0.8-1.9-1.9-1.9h-18.1l0,0
									C221.3,155.5,226.4,160.6,232.5,160.6z"/>
							</g>
						</g>
						<g>
							<path class="st31" d="M270.5,136.9c-0.4,0-0.7-0.3-0.7-0.7c0-5.2-4.5-5.3-4.8-5.3c-0.4,0-0.7-0.3-0.7-0.7s0.3-0.7,0.7-0.7
								c0,0,6.1,0.1,6.1,6.6C271.2,136.6,270.9,136.9,270.5,136.9z"/>
							<path class="st31" d="M195.8,136.9c-0.4,0-0.7-0.3-0.7-0.7c0-6.5,6-6.6,6.1-6.6c0.4,0,0.7,0.3,0.7,0.7s-0.3,0.7-0.7,0.7
								c-0.1,0-4.8,0.1-4.8,5.3C196.5,136.6,196.2,136.9,195.8,136.9z"/>
							<path class="st24" d="M199.4,153.9L199.4,153.9c-0.7,0-1.3-0.5-1.3-1.3v-10.2c0-0.7,0.5-1.3,1.3-1.3l0,0
								c0.7,0,1.3,0.5,1.3,1.3v10.2C200.7,153.4,200.2,153.9,199.4,153.9z"/>
							<path class="st24" d="M267,153.9L267,153.9c-0.7,0-1.3-0.5-1.3-1.3v-10.2c0-0.7,0.5-1.3,1.3-1.3l0,0c0.7,0,1.3,0.5,1.3,1.3
								v10.2C268.2,153.4,267.7,153.9,267,153.9z"/>
						</g>
					</g>
					<path class="st37" d="M225,80.7c-22.3,3.7-28.3,31.4-28.3,31.4c-3.5,23,18.6,18.6,18.6,18.6c6.5,0.1,11.7-12.4,14.6-21.3
						c10-0.5,27-2.9,29.9-11.6C263.8,86.1,244.2,77.5,225,80.7z"/>
				</g>
				<g>
					<path class="st24" d="M208.3,204.6c0.4,1.9,2.1,3.1,4,2.7s3.1-2.1,2.7-4s-2.1-3.1-4-2.7S207.9,202.7,208.3,204.6z"/>
					<path class="st24" d="M212.1,211.2c0.4,1.9,2.1,3.1,4,2.7c1.9-0.4,3.1-2.1,2.7-4c-0.4-1.9-2.1-3.1-4-2.7
						C212.9,207.5,211.7,209.3,212.1,211.2z"/>
					<path class="st24" d="M218.4,216.4c0.4,1.9,2.1,3.1,4,2.7s3.1-2.1,2.7-4s-2.1-3.1-4-2.7C219.3,212.8,218,214.5,218.4,216.4z"/>
					<path class="st24" d="M225.6,218.5c0.4,1.9,2.1,3.1,4,2.7s3.1-2.1,2.7-4s-2.1-3.1-4-2.7C226.5,214.8,225.3,216.7,225.6,218.5z"
						/>
					<path class="st24" d="M233.3,217.7c0.4,1.9,2.1,3.1,4,2.7s3.1-2.1,2.7-4c-0.4-1.9-2.1-3.1-4-2.7
						C234.2,214,233,215.9,233.3,217.7z"/>
					<path class="st24" d="M241,215.2c0.4,1.9,2.1,3.1,4,2.7c1.9-0.4,3.1-2.1,2.7-4s-2.1-3.1-4-2.7
						C241.9,211.5,240.7,213.3,241,215.2z"/>
					<path class="st24" d="M247.2,210.3c0.4,1.9,2.1,3.1,4,2.7s3.1-2.1,2.7-4c-0.4-1.9-2.1-3.1-4-2.7S246.8,208.4,247.2,210.3z"/>
					<path class="st24" d="M252,204.2c0.4,1.9,2.1,3.1,4,2.7c1.9-0.4,3.1-2.1,2.7-4c-0.4-1.9-2.1-3.1-4-2.7
						C252.8,200.4,251.6,202.3,252,204.2z"/>
				</g>
			</g>
		</g>
		<g>
			<g>
				<g>
					<g>
						<path class="st14" d="M620.6,484.9l-365.3-0.1l0.1-244.7c0-4.1,3.3-7.4,7.4-7.4l350.4,0.1c4.1,0,7.4,3.3,7.4,7.4L620.6,484.9z
							"/>
						<path class="st24" d="M440.9,243c0,1.5-1.3,2.7-2.8,2.7c-1.6,0-2.8-1.2-2.8-2.7s1.3-2.7,2.8-2.7
							C439.7,240.3,440.9,241.5,440.9,243z"/>
						<path class="st14" d="M659.3,529.1l-443.1-0.3c-4.8,0-8.8-2.7-8.6-6.1v-9.6c0-0.9,1.1-1.7,2.4-1.7l456,0.3
							c1.3,0,2.4,0.8,2.4,1.7v9.3C668.3,526.4,664.3,529.1,659.3,529.1z"/>
					</g>
					<g>
						<g>
							<path class="st10" d="M279.7,465.7l316.7,0.1c4.5,0,8.1-3.6,8.1-8.1l0.1-197c0-4.5-3.6-8.1-8.1-8.1l-316.7-0.1
								c-4.5,0-8.1,3.6-8.1,8.1l-0.1,197C271.6,462.2,275.1,465.7,279.7,465.7z"/>
							<g>
								<path class="st31" d="M604.5,267v-6.1c0-4.5-3.6-8.1-8.1-8.1l-316.6-0.3c-4.5,0-8.1,3.6-8.1,8.1v6.2L604.5,267z"/>
								<path class="st10" d="M575.1,260.8c0,1.1-0.8,1.9-1.9,1.9c-1.1,0-1.9-0.8-1.9-1.9c0-1.1,0.8-1.9,1.9-1.9
									C574.3,258.9,575.1,259.7,575.1,260.8z"/>
								<path class="st10" d="M582.7,260.8c0,1.1-0.8,1.9-1.9,1.9c-1.1,0-1.9-0.8-1.9-1.9c0-1.1,0.8-1.9,1.9-1.9
									C581.8,258.9,582.7,259.7,582.7,260.8z"/>
								<path class="st10" d="M590.2,260.8c0,1.1-0.8,1.9-1.9,1.9c-1.1,0-1.9-0.8-1.9-1.9c0-1.1,0.8-1.9,1.9-1.9
									C589.4,258.9,590.2,259.7,590.2,260.8z"/>
							</g>
						</g>
					</g>
					<rect x="299.9" y="290.4" class="st34" width="273.5" height="147.9"/>
					<rect x="347.6" y="290.4" class="st19" width="178.4" height="96.4"/>
					<rect x="393" y="290.4" class="st19" width="87.3" height="47.2"/>
					<path class="st40" d="M256.8,484l-48,28.2l0,0h459.5l-46.5-27.9L256.8,484z"/>
				</g>
			</g>
			<path class="st20" d="M257.2,484.1l-46.5,27.5l0,0H668L620.2,483L257.2,484.1z"/>
			<path class="st14" d="M281.1,489c-1.3,0-2.7,0.4-3.7,1.2L257.1,505l0,0l364.5,0.1l-18.7-13.6c-2.1-1.5-4.5-2.3-7.2-2.3L281.1,489
				z"/>
			<g>
				<g>
					<g>
						<g>
							<path class="st28" d="M526.6,388.9l15.4,22.3c0.3,0.3-0.3-1.1,0-1.5l24.2-39.7h-0.1l2.1-3.3l7.6-12.5
								c-5.4-5.7-6.9-18.2-6.8-18.2l-2.7-8.5c-0.5-1.6,0.1-3.3,1.6-4c1.7-0.8,3.6,0.1,4.1,1.9c0,0,1.6,4.9,2.5,8.1
								c0.4,1.3,2.3,1.5,2.9,0.1c0.8-1.9,0.8-4.1,0.5-5.8c0-0.1-4.7-21.9-4.7-21.9c-0.4-1.7,0.7-3.3,2.4-3.7l0,0
								c1.7,0,3.5,1.3,3.9,3.1l3.2,15.3c0.1,0.7,0.8,1.2,1.5,1.2h0.5c0.8,0,1.5-0.7,1.6-1.5l1.3-19.5c0.1-1.6,1.3-3.1,2.9-3.1
								c1.9,0,3.3,1.5,3.2,3.3l-1.3,19c-0.1,0.9,0.5,1.9,1.6,2.1c1.2,0.3,2.5-0.5,2.8-1.7l3.7-16.6c0.4-1.6,1.9-2.8,3.5-2.5
								c1.9,0.3,3.1,2,2.7,3.7l-4,17.1c-0.3,1.2-0.1,2.4,0.3,3.5l0,0c0.5,1.3,2.4,1.3,2.9,0l3.5-7.2c0.7-1.5,2.4-2.3,3.9-1.7
								c1.7,0.7,2.5,2.7,1.7,4.3l-7,15.8c-5.2,14.2-10.9,22.6-12.9,25.1l-6.4,13.4l-1.5,3.1l0,0L554,447.8
								c-5.2,10.9-19.5,13.4-28,4.9l-28.2-31.9L526.6,388.9z"/>
							<path class="st31" d="M588.7,344L588.7,344c0.5,0,0.8-0.4,0.7-0.8c-0.4-3.6-1.7-6.2-4.1-7.8c-3.9-2.7-8.9-1.6-9-1.5
								c-0.4,0.1-0.7,0.5-0.5,0.8c0.1,0.4,0.5,0.7,0.8,0.5c0,0,4.7-1.1,8,1.3c2,1.3,3.1,3.7,3.5,6.8C588,343.7,588.3,344,588.7,344z
								"/>
						</g>
					</g>
					<path class="st22" d="M488.2,421.1l8.9,2.9l34.4-37.2c-25.1-47.3-56-65.1-73.9-71.8c-7-2.7-14.4-3.9-21.9-3.9h-25
						c-6.8,0-13.4,1.1-19.8,3.5c-54.5,20.9-74.3,104.9-74.3,104.9l7.4,1.2l35.9,6v38.4h128.3L488.2,421.1z"/>
					<g>
						<polygon class="st28" points="359.4,426.7 324.5,421.1 324.3,465.2 359.4,465.2 						"/>
					</g>
					<g>
						<path class="st41" d="M488.1,441.8c0.4,0,0.7-0.3,0.7-0.7v-31.2c0-0.4-0.3-0.7-0.7-0.7c-0.4,0-0.7,0.3-0.7,0.7v31.2
							C487.3,441.6,487.7,441.8,488.1,441.8z"/>
						<path class="st41" d="M359.5,442.5c0.4,0,0.7-0.3,0.7-0.7v-31.2c0-0.4-0.3-0.7-0.7-0.7s-0.7,0.3-0.7,0.7v31.2
							C358.9,442.1,359.1,442.5,359.5,442.5z"/>
					</g>
				</g>
				<g>
					<path class="st24" d="M473.5,202.6c-7.4-16.5-20.7-9.8-20.7-9.8c-3.9-9.7-14.8-21.1-29.8-22.5c-10.9-0.9-16.3,3.7-19.9,5.1
						c-8.5-4.8-16.9-5.1-23,1.5c-8.9,9.6-5.3,18.2-2.9,21.9c0.7,1.5,3.9,6.4,6.8,8c-4.9,11.7-8.8,30.8,17.4,32.6L456,242
						c0,0,4.1-3.6,8.6-8.9C471.2,225.2,478.4,213.2,473.5,202.6z"/>
					<g>
						<g>
							<g>
								<path class="st42" d="M388.3,208.3l0.9-0.1c-0.5-0.1-0.8-0.1-0.8-0.1S388.3,208.1,388.3,208.3z"/>
								<path class="st28" d="M464.7,233.1c-4.4,5.4-8.6,8.9-8.6,8.9l-1.9-21c-8.1-0.5-10.2-6.4-10.4-11.7l-14-0.1
									c-19.9,2.5-37-0.4-40.8-1.2l-0.9,0.1c-0.1,0.1-0.3,0.4-0.4,0.5v23.1h-0.9c-6,0-10.9,4.8-10.9,10.9v1.2
									c0,6,4.8,10.9,10.9,10.9h0.9v15.7c0,12,8.5,19.9,16.1,21.3l-2.7,30.7c0,8.2,6.6,15,15,15h10c8.9,0,16.2-7.2,16.2-16.2
									l-2.7-29.2l0,0c10.9,0,19.8-8.9,19.8-19.8v-17.4h0.3c6,0,10.9-4.8,10.9-10.9v-1.2C470.5,238.5,468.1,234.9,464.7,233.1z"/>
							</g>
							<path class="st38" d="M439.3,291.9l1.3,13.4l-35.9-13.7c0.7,0.1,1.5,0.3,2.3,0.3H439.3z"/>
						</g>
						<g>
							<path class="st31" d="M426.7,279.3c0.1,0,0.3,0,0.4-0.1c0.4-0.1,0.4-0.7,0.3-0.9c-1.1-1.9-2.9-2.9-5.1-2.9s-4,1.1-5.1,2.9
								c-0.1,0.4-0.1,0.8,0.3,0.9c0.4,0.1,0.8,0.1,0.9-0.3c0.8-1.3,2.3-2.3,3.9-2.3c1.6,0,3.1,0.8,3.9,2.3
								C426.3,279.1,426.4,279.3,426.7,279.3z"/>
							<g>
								<path class="st31" d="M466.4,243.4c0.3,0,0.4-0.3,0.4-0.4c0-4.9-4.5-5.1-4.7-5.1c-0.3,0-0.4,0.3-0.4,0.4
									c0,0.3,0.3,0.4,0.4,0.4c0.1,0,3.7,0.1,3.7,4.1C465.9,243.2,466.1,243.4,466.4,243.4z"/>
								<path class="st31" d="M379.9,243.4c-0.3,0-0.4-0.3-0.4-0.4c0-4.9,4.5-4.9,4.7-4.9c0.3,0,0.4,0.3,0.4,0.4
									c0,0.3-0.3,0.4-0.4,0.4c-0.1,0-3.7,0-3.7,4.1C380.3,243.1,380,243.4,379.9,243.4z"/>
							</g>
							<path d="M404.7,242.8L404.7,242.8c-1.1,0-2-0.9-2-2V237c0-1.1,0.9-2,2-2l0,0c1.1,0,2,0.9,2,2v3.9
								C406.6,241.9,405.8,242.8,404.7,242.8z"/>
							<path d="M434.6,242.8L434.6,242.8c-1.1,0-2-0.9-2-2V237c0-1.1,0.9-2,2-2l0,0c1.1,0,2,0.9,2,2v3.9
								C436.6,241.9,435.7,242.8,434.6,242.8z"/>
							<g>
								<path class="st24" d="M411.9,227.8c-0.9,0.7-2.1,0.7-3.3,0.7c-1.2,0-2.4,0.1-3.5,0.3c-1.1,0.1-2.3,0.3-3.5,0.5
									c-1.2,0.1-2.4,0.5-3.5,0c-0.9-0.4-1.5-1.7-0.5-3.6c0.8-1.7,3.3-3.9,6.8-4.3s6.2,1.2,7.3,2.7
									C413.1,225.8,412.8,227.3,411.9,227.8z"/>
							</g>
							<g>
								<path class="st24" d="M444.6,231c-1.2,0.3-2.4-0.1-3.6-0.4c-1.2-0.4-2.5-0.7-3.6-0.9c-1.1-0.3-2.4-0.4-3.7-0.7
									c-1.3-0.3-2.7-0.3-3.5-1.1c-0.8-0.7-0.8-2.3,0.9-3.7c1.6-1.5,4.9-2.8,8.5-2c3.6,0.8,5.8,3.2,6.2,5.1
									C446.6,229.4,445.8,230.7,444.6,231z"/>
							</g>
							<path class="st31" d="M404.5,243.6c1.1,0,2.3-0.3,3.7-0.9c0.4-0.1,0.5-0.7,0.3-0.9c-0.1-0.4-0.7-0.5-0.9-0.3
								c-3.3,1.6-5.7,0.1-5.8,0c-0.3-0.3-0.8-0.1-0.9,0.3c-0.3,0.3-0.1,0.8,0.1,0.9C401,242.7,402.3,243.6,404.5,243.6z"/>
							<path class="st31" d="M434.4,243.6c1.1,0,2.3-0.3,3.7-0.9c0.4-0.1,0.5-0.7,0.3-0.9c-0.1-0.4-0.7-0.5-0.9-0.3
								c-3.3,1.6-5.7,0.1-5.8,0c-0.3-0.3-0.8-0.1-0.9,0.3c-0.3,0.3-0.1,0.8,0.1,0.9C430.9,242.7,432.3,243.6,434.4,243.6z"/>
							<path class="st31" d="M421.5,255.5h7.6c0.3,0,0.5-0.3,0.5-0.5c0-0.3-0.3-0.5-0.5-0.5h-7.6c-2.9,0-5.2-2.4-5.2-5.2v-1.5
								c0-0.8,0.7-1.5,1.5-1.5c2.4,0,3.9-1.9,3.9-4.7l0.3-7.4c0-0.3-0.3-0.5-0.5-0.5c-0.3,0-0.5,0.3-0.5,0.5l-0.3,7.4
								c0,0.8-0.3,3.6-2.8,3.6c-1.5,0-2.7,1.2-2.7,2.7v1.5C415.2,252.5,418,255.5,421.5,255.5z"/>
							<path class="st10" d="M422.7,273.4h-3.2c-1.6,0-2.8-1.2-2.8-2.8v-7.4l17.4-4.4v3.1C434.1,268.2,429.1,273.4,422.7,273.4z"/>
						</g>
						<g>
							<path class="st14" d="M402.5,254.4c-7.3,0-13.3-6-13.3-13.3c0-7.3,6-13.3,13.3-13.3s13.3,6,13.3,13.3
								C415.8,248.6,409.8,254.5,402.5,254.4z M402.5,229.2c-6.6,0-12,5.3-12,12c0,6.6,5.3,12,12,12s12-5.3,12-12
								C414.4,234.6,409.1,229.2,402.5,229.2z"/>
							<path class="st14" d="M439.6,253.1c-3.6,0-6.9-1.3-9.4-3.9c-2.5-2.5-3.9-5.8-3.9-9.4c0-3.6,1.3-6.9,3.9-9.4
								c2.5-2.5,5.8-3.9,9.4-3.9s6.9,1.3,9.4,3.9l0,0c2.5,2.5,3.9,5.8,3.9,9.4s-1.3,6.9-3.9,9.4
								C446.5,251.7,443.2,253.2,439.6,253.1z M439.6,227.8c-3.2,0-6.2,1.2-8.5,3.5c-2.3,2.3-3.5,5.3-3.5,8.5c0,3.2,1.2,6.2,3.5,8.5
								c2.3,2.3,5.3,3.5,8.5,3.5c3.2,0,6.2-1.2,8.5-3.5c2.3-2.3,3.5-5.3,3.5-8.5c0-3.2-1.2-6.2-3.5-8.5l0,0
								C445.8,229.2,442.8,227.8,439.6,227.8z"/>
							<path class="st14" d="M414.7,238.7c-0.1,0-0.4-0.1-0.5-0.3c-0.3-0.3-0.1-0.7,0.1-0.9c0.1,0,7.3-5.7,13.2,0
								c0.3,0.3,0.3,0.7,0,0.9c-0.3,0.3-0.7,0.3-0.9,0c-4.9-4.9-11.2-0.1-11.4,0C415,238.7,414.8,238.7,414.7,238.7z"/>
						</g>
					</g>
				</g>
			</g>
		</g>
		<g>
			<g>
				<g>
					<circle class="st10" cx="255.5" cy="301.9" r="25.5"/>
					<path class="st31" d="M255.5,329.6c-15.3,0-27.8-12.5-27.8-27.8c0-15.3,12.5-27.8,27.8-27.8s27.8,12.5,27.8,27.8
						C283.3,317.3,270.9,329.6,255.5,329.6z M255.5,278.6c-12.9,0-23.3,10.5-23.3,23.3c0,12.9,10.5,23.3,23.3,23.3
						c12.9,0,23.3-10.5,23.3-23.3C278.7,289.1,268.4,278.6,255.5,278.6z"/>
				</g>
				<path class="st31" d="M264.4,293c0,4.9-4,8.9-8.9,8.9c-4.9,0-8.9-4-8.9-8.9s4-8.9,8.9-8.9C260.4,284,264.4,288,264.4,293z"/>
				<path class="st31" d="M270.5,310.8c0,4.9-6.6,8.9-15,8.9c-8.2,0-15-4-15-8.9c0-4.9,6.6-8.9,15-8.9
					C263.8,301.9,270.5,305.8,270.5,310.8z"/>
				<g>
					<path class="st31" d="M229.8,282.7H216c-1.1,0-2-0.9-2-2c0-1.1,0.9-2,2-2h13.8c1.1,0,2,0.9,2,2
						C231.8,281.8,230.9,282.7,229.8,282.7z"/>
					<path class="st31" d="M222.9,289.6c-1.1,0-2-0.9-2-2v-13.8c0-1.1,0.9-2,2-2c1.1,0,2,0.9,2,2v13.8
						C224.9,288.7,224,289.6,222.9,289.6z"/>
				</g>
			</g>
			<g>
				<g>
					<circle class="st10" cx="470" cy="105.1" r="20.7"/>
					<path class="st17" d="M470,127.6c-12.4,0-22.5-10.1-22.5-22.5s10.1-22.5,22.5-22.5s22.5,10.1,22.5,22.5S482.4,127.6,470,127.6z
						 M470,86.3c-10.4,0-18.9,8.5-18.9,18.9S459.6,124,470,124c10.4,0,18.9-8.5,18.9-18.9C488.9,94.8,480.4,86.3,470,86.3z"/>
				</g>
				<path class="st17" d="M477.2,98c0,4-3.2,7.2-7.2,7.2s-7.2-3.2-7.2-7.2s3.2-7.2,7.2-7.2S477.2,94,477.2,98z"/>
				<ellipse class="st17" cx="470" cy="112.3" rx="12.1" ry="7.2"/>
				<g>
					<path class="st17" d="M449.1,90H438c-1.1,0-2-0.9-2-2s0.9-2,2-2h11.2c1.1,0,2,0.9,2,2S450.2,90,449.1,90z"/>
					<path class="st17" d="M443.6,95.6c-1.1,0-2-0.9-2-2V82.4c0-1.1,0.9-2,2-2s2,0.9,2,2v11.2C445.5,94.6,444.6,95.6,443.6,95.6z"/>
				</g>
			</g>
			<g>
				<path class="st43" d="M639.5,426.7h-2.7c-0.4,0-0.7-0.3-0.7-0.7s0.3-0.7,0.7-0.7h2.7c0.4,0,0.7,0.3,0.7,0.7
					S639.9,426.7,639.5,426.7z M652.8,426.4c-0.4,0-0.7-0.3-0.7-0.5c0-0.4,0.3-0.7,0.5-0.8c0.9-0.1,1.7-0.3,2.7-0.4
					c0.4,0,0.7,0.1,0.8,0.5c0,0.4-0.1,0.7-0.5,0.8C654.6,426.1,653.8,426.3,652.8,426.4C652.9,426.4,652.8,426.4,652.8,426.4z
					 M668,422c-0.3,0-0.5-0.1-0.5-0.4c-0.1-0.3,0-0.7,0.3-0.9c0.8-0.4,1.6-0.8,2.3-1.2c0.3-0.1,0.7-0.1,0.9,0.3
					c0.1,0.3,0.1,0.7-0.3,0.9c-0.8,0.4-1.6,0.8-2.4,1.2C668.2,421.9,668.2,422,668,422z M680.8,412.6c-0.1,0-0.4,0-0.4-0.1
					c-0.3-0.3-0.3-0.7,0-0.9c0.7-0.7,1.2-1.3,1.7-2c0.3-0.3,0.7-0.3,0.9-0.1c0.3,0.3,0.3,0.7,0.1,0.9c-0.5,0.7-1.2,1.3-1.9,2
					C681.2,412.6,681.1,412.6,680.8,412.6z M689.7,399.6c-0.1,0-0.1,0-0.3,0c-0.4-0.1-0.5-0.5-0.4-0.9c0.4-0.8,0.7-1.6,1.1-2.4
					c0.1-0.4,0.5-0.5,0.8-0.4c0.4,0.1,0.5,0.5,0.4,0.8c-0.3,0.8-0.7,1.7-1.1,2.5C690.2,399.4,690,399.6,689.7,399.6z M693.7,384.1
					L693.7,384.1c-0.4,0-0.7-0.4-0.7-0.7c0-0.9,0.1-1.7,0.1-2.7c0-0.4,0.3-0.7,0.7-0.7l0,0c0.4,0,0.7,0.3,0.7,0.7
					c0,0.9,0,1.9-0.1,2.7C694.4,383.9,694.1,384.1,693.7,384.1z M693.8,368.2c-0.4,0-0.7-0.3-0.7-0.7v-2.7c0-0.4,0.3-0.7,0.7-0.7
					s0.7,0.3,0.7,0.7v2.7C694.5,367.9,694.2,368.2,693.8,368.2z M693.8,352.2c-0.4,0-0.7-0.3-0.7-0.7v-2.7c0-0.4,0.3-0.7,0.7-0.7
					s0.7,0.3,0.7,0.7v2.7C694.5,352,694.2,352.2,693.8,352.2z M693.8,336.3c-0.4,0-0.7-0.3-0.7-0.7V333c0-0.4,0.3-0.7,0.7-0.7
					s0.7,0.3,0.7,0.7v2.7C694.5,336,694.2,336.3,693.8,336.3z M693.8,320.3c-0.4,0-0.7-0.3-0.7-0.7V317c0-0.4,0.3-0.7,0.7-0.7
					s0.7,0.3,0.7,0.7v2.7C694.5,320.1,694.2,320.3,693.8,320.3z M693.8,304.4c-0.4,0-0.7-0.3-0.7-0.7v-2.7c0-0.4,0.3-0.7,0.7-0.7
					s0.7,0.3,0.7,0.7v2.7C694.5,304.1,694.2,304.4,693.8,304.4z M693.8,288.4c-0.4,0-0.7-0.3-0.7-0.7v-2.7c0-0.4,0.3-0.7,0.7-0.7
					s0.7,0.3,0.7,0.7v2.7C694.5,288.2,694.2,288.4,693.8,288.4z"/>
				<path class="st31" d="M317.7,117c-0.4,0-0.7-0.3-0.7-0.7v-2.7c0-0.4,0.3-0.7,0.7-0.7c0.4,0,0.7,0.3,0.7,0.7v2.7
					C318.3,116.7,318.1,117,317.7,117z M317.7,101c-0.4,0-0.7-0.3-0.7-0.7v-2.7c0-0.4,0.3-0.7,0.7-0.7c0.4,0,0.7,0.3,0.7,0.7v2.7
					C318.3,100.8,318.1,101,317.7,101z M319,85.2h-0.1c-0.4-0.1-0.5-0.4-0.5-0.8c0.1-0.9,0.4-1.7,0.7-2.7c0.1-0.4,0.5-0.5,0.8-0.5
					c0.4,0.1,0.5,0.4,0.5,0.8c-0.3,0.8-0.4,1.7-0.7,2.5C319.7,84.9,319.4,85.2,319,85.2z M537.8,71.8c-0.3,0-0.7-0.3-0.7-0.5
					c-0.1-0.8-0.3-1.7-0.5-2.5c-0.1-0.4,0.1-0.7,0.5-0.8c0.4-0.1,0.7,0.1,0.8,0.5c0.3,0.9,0.4,1.7,0.5,2.7
					C538.5,71.4,538.2,71.8,537.8,71.8L537.8,71.8z M324.6,70.2c-0.1,0-0.3,0-0.3-0.1c-0.3-0.1-0.4-0.5-0.3-0.9
					c0.4-0.8,0.8-1.6,1.3-2.4c0.1-0.3,0.5-0.4,0.9-0.3c0.3,0.1,0.4,0.5,0.3,0.9c-0.4,0.8-0.9,1.5-1.3,2.3
					C325,70,324.7,70.2,324.6,70.2z M333.8,57.3c-0.1,0-0.3,0-0.4-0.1c-0.3-0.3-0.3-0.7,0-0.9c0.7-0.7,1.2-1.3,1.9-1.9
					c0.3-0.3,0.7-0.3,0.9,0c0.3,0.3,0.3,0.7,0,0.9c-0.7,0.7-1.2,1.2-1.9,1.9C334.2,57.3,333.9,57.3,333.8,57.3z M532.1,57
					c-0.3,0-0.4-0.1-0.5-0.3c-0.5-0.8-0.9-1.5-1.5-2.1c-0.3-0.3-0.1-0.7,0.1-0.9c0.3-0.3,0.7-0.1,0.9,0.1c0.5,0.7,1.1,1.5,1.5,2.3
					c0.1,0.3,0.1,0.7-0.3,0.9C532.3,57,532.2,57,532.1,57z M346.1,47.3c-0.3,0-0.4-0.1-0.5-0.3c-0.1-0.3-0.1-0.7,0.3-0.9
					c0.8-0.5,1.6-0.9,2.3-1.3c0.3-0.1,0.7,0,0.9,0.3c0.1,0.3,0,0.7-0.3,0.9c-0.8,0.4-1.5,0.9-2.3,1.3
					C346.4,47.2,346.3,47.3,346.1,47.3z M521.2,45.6c-0.1,0-0.3,0-0.4-0.1c-0.7-0.5-1.5-0.9-2.3-1.5c-0.3-0.1-0.4-0.5-0.3-0.9
					c0.1-0.3,0.7-0.4,0.9-0.3c0.8,0.4,1.6,0.9,2.3,1.5c0.3,0.3,0.4,0.7,0.1,0.9C521.6,45.5,521.3,45.6,521.2,45.6z M360.6,40.8
					c-0.3,0-0.5-0.1-0.7-0.5c-0.1-0.4,0.1-0.7,0.4-0.8c0.8-0.3,1.7-0.5,2.7-0.7c0.4-0.1,0.7,0.1,0.8,0.5c0.1,0.4-0.1,0.7-0.5,0.8
					c-0.8,0.3-1.7,0.4-2.5,0.7C360.7,40.8,360.7,40.8,360.6,40.8z M506.6,39.3h-0.1c-0.8-0.1-1.7-0.3-2.5-0.4
					c-0.4,0-0.7-0.4-0.5-0.8c0-0.4,0.4-0.7,0.8-0.5c0.9,0.1,1.7,0.3,2.7,0.4c0.4,0.1,0.5,0.4,0.5,0.8
					C507.2,39.2,506.8,39.3,506.6,39.3z M376.4,38.5c-0.4,0-0.7-0.3-0.7-0.7c0-0.4,0.3-0.7,0.7-0.7h2.7c0.4,0,0.7,0.3,0.7,0.7
					c0,0.4-0.3,0.7-0.7,0.7H376.4L376.4,38.5z M490.7,38.5h-2.7c-0.4,0-0.7-0.3-0.7-0.7c0-0.4,0.3-0.7,0.7-0.7h2.7
					c0.4,0,0.7,0.3,0.7,0.7C491.4,38.3,491,38.5,490.7,38.5z M474.8,38.5h-2.7c-0.4,0-0.7-0.3-0.7-0.7c0-0.4,0.3-0.7,0.7-0.7h2.7
					c0.4,0,0.7,0.3,0.7,0.7C475.5,38.3,475.1,38.5,474.8,38.5z M458.8,38.5h-2.7c-0.4,0-0.7-0.3-0.7-0.7c0-0.4,0.3-0.7,0.7-0.7h2.7
					c0.4,0,0.7,0.3,0.7,0.7C459.5,38.3,459.1,38.5,458.8,38.5z M442.9,38.5h-2.7c-0.4,0-0.7-0.3-0.7-0.7c0-0.4,0.3-0.7,0.7-0.7h2.7
					c0.4,0,0.7,0.3,0.7,0.7C443.6,38.3,443.2,38.5,442.9,38.5z M426.9,38.5h-2.7c-0.4,0-0.7-0.3-0.7-0.7c0-0.4,0.3-0.7,0.7-0.7h2.7
					c0.4,0,0.7,0.3,0.7,0.7C427.6,38.3,427.2,38.5,426.9,38.5z M411,38.5h-2.7c-0.4,0-0.7-0.3-0.7-0.7c0-0.4,0.3-0.7,0.7-0.7h2.7
					c0.4,0,0.7,0.3,0.7,0.7C411.7,38.3,411.3,38.5,411,38.5z M395,38.5h-2.7c-0.4,0-0.7-0.3-0.7-0.7c0-0.4,0.3-0.7,0.7-0.7h2.7
					c0.4,0,0.7,0.3,0.7,0.7C395.7,38.3,395.3,38.5,395,38.5z"/>
				<path class="st31" d="M251.4,369.5h-2.7c-0.4,0-0.7-0.3-0.7-0.7c0-0.4,0.3-0.7,0.7-0.7h2.7c0.4,0,0.7,0.3,0.7,0.7
					C252,369.2,251.8,369.5,251.4,369.5z M235.4,369.5L235.4,369.5c-0.9,0-1.9-0.1-2.8-0.3c-0.4,0-0.7-0.4-0.5-0.8
					c0-0.4,0.4-0.7,0.8-0.5c0.8,0.1,1.7,0.3,2.5,0.3c0.4,0,0.7,0.4,0.7,0.7C236.1,369.2,235.7,369.5,235.4,369.5z M220.4,364.6
					c-0.1,0-0.3,0-0.4-0.1c-0.8-0.5-1.5-1.1-2.3-1.6c-0.3-0.3-0.4-0.7-0.1-0.9c0.3-0.3,0.7-0.4,0.9-0.1c0.7,0.5,1.5,1.1,2.1,1.5
					c0.3,0.1,0.4,0.7,0.1,0.9C220.8,364.5,220.6,364.6,220.4,364.6z M209.7,352.9c-0.3,0-0.5-0.1-0.5-0.4c-0.4-0.8-0.8-1.6-1.2-2.4
					c-0.1-0.4,0-0.7,0.4-0.9c0.4-0.1,0.7,0,0.9,0.4c0.4,0.8,0.7,1.6,1.1,2.4c0.1,0.3,0,0.7-0.3,0.9
					C209.9,352.9,209.7,352.9,209.7,352.9z M206,337.6c-0.4,0-0.7-0.3-0.7-0.7v-2.7c0-0.4,0.3-0.7,0.7-0.7s0.7,0.3,0.7,0.7v2.7
					C206.7,337.3,206.4,337.6,206,337.6z M206,321.7c-0.4,0-0.7-0.3-0.7-0.7v-2.7c0-0.4,0.3-0.7,0.7-0.7s0.7,0.3,0.7,0.7v2.7
					C206.7,321.4,206.4,321.7,206,321.7z M206,305.7c-0.4,0-0.7-0.3-0.7-0.7v-2.7c0-0.4,0.3-0.7,0.7-0.7s0.7,0.3,0.7,0.7v2.7
					C206.7,305.4,206.4,305.7,206,305.7z"/>
			</g>
		</g>
	</g>
	<g id="DESIGNED_BY_FREEPIK_2_">
	</g>
</g>
</svg>
