<?xml version="1.0" encoding="utf-8"?>
<!-- Generator: Adobe Illustrator 24.0.1, SVG Export Plug-In . SVG Version: 6.00 Build 0)  -->
<svg version="1.1" id="Layer_1" xmlns="http://www.w3.org/2000/svg" xmlns:xlink="http://www.w3.org/1999/xlink" x="0px" y="0px"
	 viewBox="0 0 1920 2000.2" style="enable-background:new 0 0 1920 2000.2;" xml:space="preserve">
<style type="text/css">
	.st0{fill:#1D2025;}
	.st1{fill:#282C34;}
	.st2{opacity:0.27;fill:#282C34;}
	.st3{opacity:0.24;fill:#282C34;}
</style>
<rect class="st0" width="1920" height="2000.2"/>
<path class="st1" d="M439.1,1175.5c-136.3-16.8-354.1-43.7-394.9-164.2c-23.7-70,32.7-111.4,2.1-169.7
	c-43.4-83-175.8-34.2-360.8-116.7C-379.3,696-525.9,630.6-547,517.8c-17.7-94.9,73.1-117.7,133.8-313.2
	c44.8-144.1,16.4-199,78.5-261.1c64-64,161.7-62,219.7-60.3C87.8-111.1,144.7,2.3,402.9,105.7c253.6,101.6,298.9,32.3,378.7,119
	c125.5,136.5,0.7,294.6,121.9,606.1c64.7,166.3,133.2,205.9,105.5,270.5C950.3,1238.6,584.4,1193.4,439.1,1175.5z"/>
<circle class="st2" cx="1152.8" cy="1131.4" r="8.8"/>
<path class="st1" d="M1339.6,825.7c0.6,0.8,1.1,1.3,1.5,2.4c0.2,0.5,0.8,2.1,0.3,3.6c-0.7,2.5-3.9,3.8-6.2,3.8
	c-1.5,0-2.7-0.5-5.2-1.6c-1.7-0.7-2.8-1.3-3.9-2.5c-1.4-1.6-2.3-3.6-2.3-5.9c0-0.9,0.1-1.8,0.4-2.6c0,0,0.5-1.5,1.5-2.8
	c2.2-2.8,8.6-5,11.1-2.7C1338.9,819.2,1337.2,822.3,1339.6,825.7z"/>
<path class="st1" d="M1071.8,1387.6c0.6,0.8,1.1,1.3,1.5,2.4c0.2,0.5,0.8,2.1,0.3,3.6c-0.7,2.5-3.9,3.8-6.2,3.8
	c-1.5,0-2.7-0.5-5.2-1.6c-1.7-0.7-2.8-1.3-3.9-2.5c-1.4-1.6-2.3-3.6-2.3-5.9c0-0.9,0.1-1.8,0.4-2.6c0,0,0.5-1.5,1.5-2.8
	c2.2-2.8,8.6-5,11.1-2.7C1071.1,1381.1,1069.5,1384.1,1071.8,1387.6z"/>
<path class="st1" d="M965.6,1455.6c4.4,6.5,8.4,9.6,11.8,18.5c1.5,4,5.9,15.7,2.6,27.2c-5.5,18.9-29.7,28.7-47.6,29.2
	c-5,0.1-31,2.1-39.3-12.1c-8.6-14.9,12.6-29.5,8.6-53.5c-5-30.2-43.4-35.7-41.5-52.4c2.4-20.9,64.5-39.1,84.8-20.6
	C960.3,1405.9,947.7,1429.3,965.6,1455.6z"/>
<circle class="st3" cx="1422.5" cy="1093.7" r="5.5"/>
</svg>
