<?xml version="1.0" encoding="utf-8"?>
<!-- Generator: Adobe Illustrator 24.0.1, SVG Export Plug-In . SVG Version: 6.00 Build 0)  -->
<svg version="1.1" id="Layer_1" xmlns="http://www.w3.org/2000/svg" xmlns:xlink="http://www.w3.org/1999/xlink" x="0px" y="0px"
	 viewBox="0 0 1920 2000.2" style="enable-background:new 0 0 1920 2000.2;" xml:space="preserve">
<style type="text/css">
	.st0{fill:#282C34;}
</style>
<path class="st0" d="M328.4,247.6c0.6,0.8,1.1,1.3,1.5,2.4c0.2,0.5,0.8,2.1,0.3,3.6c-0.7,2.5-3.9,3.8-6.2,3.8
	c-1.5,0-2.7-0.5-5.2-1.6c-1.7-0.7-2.8-1.3-3.9-2.5c-1.4-1.6-2.3-3.6-2.3-5.9c0-0.9,0.1-1.8,0.4-2.6c0,0,0.5-1.5,1.5-2.8
	c2.2-2.8,8.6-5,11.1-2.7C327.7,241.1,326.1,244.2,328.4,247.6z"/>
<path class="st0" d="M310.7,1340.9c0.6,0.8,1.1,1.3,1.5,2.4c0.2,0.5,0.8,2.1,0.3,3.6c-0.7,2.5-3.9,3.8-6.2,3.8
	c-1.5,0-2.7-0.5-5.2-1.6c-1.7-0.7-2.8-1.3-3.9-2.5c-1.4-1.6-2.3-3.6-2.3-5.9c0-0.9,0.1-1.8,0.4-2.6c0,0,0.5-1.5,1.5-2.8
	c2.2-2.8,8.6-5,11.1-2.7C310,1334.4,308.3,1337.5,310.7,1340.9z"/>
<path class="st0" d="M1829.9,554.9c9.5,10.2,16.4,22.8,16.4,22.8c2.9,5.4,4.4,8.1,5,10.8c3.2,14.7-15.9,28.3-34.6,47.2
	c-34.5,35-28.2,48.4-47,55c-26.6,9.4-56.2-11.4-71.3-22c-39-27.4-53.2-66.7-58.9-83.2c-11.5-33.2-23.2-96.1-0.7-108.9
	c18.1-10.2,33.4,26,98.1,44.3C1761.6,528,1814.4,538.3,1829.9,554.9z"/>
</svg>
